<svg width="53" height="34" viewBox="0 0 53 34" fill="none" xmlns="http://www.w3.org/2000/svg">
<rect width="53" height="34" rx="5" fill="#EBECF5" fill-opacity="0.65"/>
<rect x="14.3926" y="8.74219" width="24.0421" height="16.3566" rx="3.5" fill="#006FCF" stroke="#F3F3F3"/>
<path fill-rule="evenodd" clip-rule="evenodd" d="M19.0147 20.7796V17.2065H23.0403L23.4722 17.7356L23.9184 17.2065H38.5302V20.5332C38.5302 20.5332 38.1481 20.776 37.7062 20.7796H29.6153L29.1283 20.2164V20.7796H27.5326V19.8181C27.5326 19.8181 27.3146 19.9523 26.8434 19.9523H26.3002V20.7796H23.8842L23.4529 20.2391L23.015 20.7796H19.0147ZM14.3243 14.5135L15.2301 12.5245H16.7964L17.3104 13.6387V12.5245H19.2576L19.5636 13.3298L19.8602 12.5245H28.6008V12.9294C28.6008 12.9294 29.0603 12.5245 29.8154 12.5245L32.6514 12.5339L33.1566 13.6334V12.5245H34.786L35.2345 13.1561V12.5245H36.8789V16.0976H35.2345L34.8047 15.464V16.0976H32.4107L32.1699 15.5344H31.5263L31.2895 16.0976H29.6659C29.0162 16.0976 28.6008 15.7011 28.6008 15.7011V16.0976H26.1529L25.667 15.5344V16.0976H16.5644L16.3238 15.5344H15.6822L15.4434 16.0976H14.3243V14.5135ZM14.3291 15.6404L15.5507 12.965H16.4768L17.6973 15.6404H16.8844L16.6602 15.1047H15.3498L15.1244 15.6404H14.3291ZM16.4021 14.5238L16.0027 13.5877L15.6021 14.5238H16.4021ZM17.7814 15.64V12.9646L18.9116 12.9685L19.569 14.6935L20.2106 12.9646H21.3318V15.64H20.6217V13.6686L19.869 15.64H19.2462L18.4914 13.6686V15.64H17.7814ZM21.8176 15.64V12.9646H24.1348V13.563H22.5352V14.0207H24.0974V14.5839H22.5352V15.0592H24.1348V15.64H21.8176ZM24.5458 15.6404V12.965H26.126C26.6495 12.965 27.1187 13.27 27.1187 13.833C27.1187 14.3142 26.7231 14.6242 26.3397 14.6547L27.274 15.6404H26.4063L25.5549 14.6899H25.2559V15.6404H24.5458ZM26.0676 13.5634H25.2559V14.1267H26.0782C26.2205 14.1267 26.404 14.0228 26.404 13.845C26.404 13.7069 26.2624 13.5634 26.0676 13.5634ZM28.1336 15.64H27.4086V12.9646H28.1336V15.64ZM29.8528 15.64H29.6963C28.939 15.64 28.4793 15.0781 28.4793 14.3133C28.4793 13.5296 28.9339 12.9646 29.8901 12.9646H30.675V13.5982H29.8614C29.4733 13.5982 29.1987 13.8836 29.1987 14.3199C29.1987 14.838 29.5126 15.0556 29.9649 15.0556H30.1517L29.8528 15.64ZM30.1764 15.6404L31.398 12.965H32.3241L33.5446 15.6404H32.7317L32.5075 15.1047H31.1971L30.9717 15.6404H30.1764ZM32.2495 14.5238L31.85 13.5877L31.4494 14.5238H32.2495ZM33.6275 15.64V12.9646H34.5303L35.683 14.6455V12.9646H36.3931V15.64H35.5195L34.3376 13.9151V15.64H33.6275ZM19.5005 20.322V17.6466H21.8176V18.245H20.2181V18.7027H21.7803V19.2659H20.2181V19.7411H21.8176V20.322H19.5005ZM30.8544 20.322V17.6466H33.1715V18.245H31.572V18.7027H33.1267V19.2659H31.572V19.7411H33.1715V20.322H30.8544ZM21.9075 20.322L23.0357 19.0008L21.8807 17.6466H22.7753L23.4632 18.4837L24.1534 17.6466H25.013L23.8731 18.9843L25.0034 20.322H24.1089L23.441 19.498L22.7893 20.322H21.9075ZM25.0878 20.3224V17.647H26.6563C27.2999 17.647 27.6759 18.0377 27.6759 18.5468C27.6759 19.1615 27.1965 19.4775 26.564 19.4775H25.8166V20.3224H25.0878ZM26.6037 18.252H25.8165V18.8681H26.6014C26.8087 18.8681 26.9541 18.7386 26.9541 18.5601C26.9541 18.37 26.808 18.252 26.6037 18.252ZM27.9842 20.322V17.6466H29.5644C30.088 17.6466 30.5571 17.9515 30.5571 18.5145C30.5571 18.9958 30.1616 19.3058 29.7781 19.3363L30.7124 20.322H29.8447L28.9933 19.3715H28.6943V20.322H27.9842ZM29.506 18.245H28.6943V18.8082H29.5165C29.6589 18.8082 29.8424 18.7043 29.8424 18.5266C29.8424 18.3884 29.7007 18.245 29.506 18.245ZM33.5004 20.322V19.7411H34.9215C35.1317 19.7411 35.2228 19.6341 35.2228 19.5167C35.2228 19.4042 35.132 19.2905 34.9215 19.2905H34.2793C33.7211 19.2905 33.4102 18.9702 33.4102 18.4892C33.4102 18.0603 33.6949 17.6466 34.5244 17.6466H35.9072L35.6082 18.2485H34.4123C34.1836 18.2485 34.1133 18.3615 34.1133 18.4694C34.1133 18.5803 34.2002 18.7027 34.3749 18.7027H35.0476C35.6699 18.7027 35.9399 19.0351 35.9399 19.4705C35.9399 19.9386 35.639 20.322 35.0137 20.322H33.5004ZM36.0025 20.322V19.7411H37.4236C37.6339 19.7411 37.725 19.6341 37.725 19.5167C37.725 19.4042 37.6342 19.2905 37.4236 19.2905H36.7815C36.2233 19.2905 35.9124 18.9702 35.9124 18.4892C35.9124 18.0603 36.1971 17.6466 37.0266 17.6466H38.4094L38.1104 18.2485H36.9144C36.6858 18.2485 36.6155 18.3615 36.6155 18.4694C36.6155 18.5803 36.7024 18.7027 36.8771 18.7027H37.5498C38.172 18.7027 38.4421 19.0351 38.4421 19.4705C38.4421 19.9386 38.1412 20.322 37.5159 20.322H36.0025Z" fill="white"/>
</svg>
