<svg width="53" height="34" viewBox="0 0 53 34" fill="none" xmlns="http://www.w3.org/2000/svg">
<rect width="53" height="34" rx="5" fill="#EBECF5" fill-opacity="0.65"/>
<path fill-rule="evenodd" clip-rule="evenodd" d="M40.7313 14.2105C41.9505 14.2105 42.6211 14.7751 42.6211 15.8416C42.682 16.6572 42.1334 17.3473 41.4019 17.4727L43.0478 19.794H41.7676L40.3656 17.5355H40.2437V19.794H39.2074V14.2105H40.7313ZM40.2437 16.7827H40.5485C41.219 16.7827 41.5238 16.469 41.5238 15.9044C41.5238 15.4025 41.219 15.0888 40.5485 15.0888H40.2437V16.7827ZM35.6108 19.794H38.5369V18.8529H36.6471V17.3473H38.4759V16.4062H36.6471V15.1515H38.5369V14.2105H35.6108V19.794ZM32.5628 17.9746L31.1608 14.2105H30.0635L32.319 19.9194H32.8676L35.1231 14.2105H34.0258L32.5628 17.9746ZM20.1883 17.0336C20.1883 18.602 21.4075 19.9194 22.9315 19.9194C23.4191 19.9194 23.8458 19.7939 24.2726 19.6057V18.351C23.9678 18.7274 23.541 18.9784 23.0534 18.9784C22.078 18.9784 21.2856 18.2255 21.2856 17.2218V17.0963C21.2246 16.0925 22.0171 15.2142 22.9924 15.1515C23.4801 15.1515 23.9678 15.4024 24.2726 15.7789V14.5241C23.9068 14.2732 23.4191 14.2105 22.9924 14.2105C21.4075 14.085 20.1883 15.4024 20.1883 17.0336ZM18.2986 16.3435C17.689 16.0926 17.5061 15.9671 17.5061 15.6534C17.5671 15.277 17.8719 14.9633 18.2376 15.0261C18.5424 15.0261 18.8472 15.2143 19.091 15.4652L19.6397 14.7124C19.213 14.336 18.6643 14.085 18.1157 14.085C17.2623 14.0223 16.5308 14.7124 16.4698 15.5907V15.6534C16.4698 16.4062 16.7746 16.8454 17.75 17.1591C17.9938 17.2218 18.2376 17.3473 18.4815 17.4727C18.6643 17.5982 18.7863 17.7864 18.7863 18.0374C18.7863 18.4765 18.4205 18.8529 18.0548 18.8529H17.9938C17.5061 18.8529 17.0794 18.5393 16.8965 18.1001L16.226 18.7902C16.5917 19.4803 17.3233 19.8567 18.0548 19.8567C19.0301 19.9194 19.8226 19.1666 19.8835 18.1628V17.9746C19.8226 17.2218 19.5178 16.8454 18.2986 16.3435ZM14.763 19.794H15.7993V14.2105H14.763V19.794ZM9.94727 14.2105H11.4712H11.776C13.239 14.2732 14.3972 15.5279 14.3363 17.0336C14.3363 17.8492 13.9705 18.602 13.3609 19.1666C12.8123 19.6058 12.1418 19.8567 11.4712 19.794H9.94727V14.2105ZM11.2884 18.8529C11.776 18.9156 12.3247 18.7274 12.6904 18.4138C13.0562 18.0373 13.239 17.5355 13.239 16.9708C13.239 16.469 13.0562 15.9671 12.6904 15.5907C12.3247 15.277 11.776 15.0888 11.2884 15.1515H10.9836V18.8529H11.2884Z" fill="#151F25"/>
<path fill-rule="evenodd" clip-rule="evenodd" d="M27.3815 14.0811C25.8575 14.0811 24.5774 15.3358 24.5774 16.9669C24.5774 18.5353 25.7966 19.8527 27.3815 19.9155C28.9664 19.9782 30.1856 18.6608 30.2465 17.0296C30.1856 15.3985 28.9664 14.0811 27.3815 14.0811V14.0811Z" fill="#FD6020"/>
</svg>
