<svg width="53" height="34" viewBox="0 0 53 34" fill="none" xmlns="http://www.w3.org/2000/svg">
<rect width="53" height="34" rx="5" fill="#EBECF5" fill-opacity="0.65"/>
<path fill-rule="evenodd" clip-rule="evenodd" d="M20.867 24.8497V25.9064V26.9631H20.4049V26.7065C20.2584 26.8968 20.036 27.0162 19.7337 27.0162C19.1378 27.0162 18.6707 26.5521 18.6707 25.9064C18.6707 25.2611 19.1378 24.7965 19.7337 24.7965C20.036 24.7965 20.2584 24.9159 20.4049 25.1062V24.8497H20.867ZM19.7912 25.2297C19.3912 25.2297 19.1465 25.5349 19.1465 25.9064C19.1465 26.2778 19.3912 26.583 19.7912 26.583C20.1734 26.583 20.4314 26.291 20.4314 25.9064C20.4314 25.5217 20.1734 25.2297 19.7912 25.2297ZM36.4816 25.9064C36.4816 25.5349 36.7264 25.2297 37.1264 25.2297C37.5091 25.2297 37.7666 25.5217 37.7666 25.9064C37.7666 26.291 37.5091 26.583 37.1264 26.583C36.7264 26.583 36.4816 26.2778 36.4816 25.9064ZM38.2027 24.0009V25.9064V26.9631H37.7401V26.7065C37.5935 26.8968 37.3712 27.0162 37.0689 27.0162C36.473 27.0162 36.0058 26.5521 36.0058 25.9064C36.0058 25.2611 36.473 24.7965 37.0689 24.7965C37.3712 24.7965 37.5935 24.9159 37.7401 25.1062V24.0009H38.2027ZM26.6026 25.208C26.9003 25.208 27.0917 25.3937 27.1405 25.7206H26.0378C26.0872 25.4155 26.2734 25.208 26.6026 25.208ZM25.5533 25.9064C25.5533 25.2474 25.9889 24.7965 26.6118 24.7965C27.2072 24.7965 27.6163 25.2474 27.6209 25.9064C27.6209 25.9681 27.6163 26.0258 27.6118 26.083H26.0337C26.1004 26.4636 26.3716 26.6007 26.6693 26.6007C26.8825 26.6007 27.1095 26.5208 27.2876 26.3796L27.5141 26.7202C27.2561 26.9368 26.9629 27.0162 26.6428 27.0162C26.0067 27.0162 25.5533 26.5785 25.5533 25.9064ZM32.1912 25.9064C32.1912 25.5349 32.436 25.2297 32.836 25.2297C33.2182 25.2297 33.4762 25.5217 33.4762 25.9064C33.4762 26.291 33.2182 26.583 32.836 26.583C32.436 26.583 32.1912 26.2778 32.1912 25.9064ZM33.9118 24.8497V25.9064V26.9631H33.4497V26.7065C33.3026 26.8968 33.0808 27.0162 32.7785 27.0162C32.1826 27.0162 31.7154 26.5521 31.7154 25.9064C31.7154 25.2611 32.1826 24.7965 32.7785 24.7965C33.0808 24.7965 33.3026 24.9159 33.4497 25.1062V24.8497H33.9118ZM29.5816 25.9064C29.5816 26.5476 30.0305 27.0162 30.7154 27.0162C31.0355 27.0162 31.2487 26.9454 31.4798 26.7642L31.2579 26.3927C31.0844 26.5167 30.9022 26.583 30.7017 26.583C30.3327 26.5785 30.0615 26.3133 30.0615 25.9064C30.0615 25.4995 30.3327 25.2343 30.7017 25.2297C30.9022 25.2297 31.0844 25.296 31.2579 25.42L31.4798 25.0485C31.2487 24.8674 31.0355 24.7965 30.7154 24.7965C30.0305 24.7965 29.5816 25.2652 29.5816 25.9064ZM34.9788 25.1062C35.0989 24.9205 35.2724 24.7965 35.5391 24.7965C35.6327 24.7965 35.7661 24.8142 35.8684 24.8542L35.7259 25.2874C35.6282 25.2474 35.5305 25.2343 35.4368 25.2343C35.1345 25.2343 34.9834 25.4286 34.9834 25.7783V26.9631H34.5208V24.8497H34.9788V25.1062ZM23.1524 25.0177C22.93 24.8719 22.6236 24.7965 22.2857 24.7965C21.7473 24.7965 21.4008 25.0531 21.4008 25.4732C21.4008 25.8178 21.6588 26.0304 22.1341 26.0967L22.3524 26.1275C22.6058 26.163 22.7254 26.2293 22.7254 26.3487C22.7254 26.5122 22.5565 26.6053 22.241 26.6053C21.9209 26.6053 21.6898 26.5036 21.5341 26.3841L21.3163 26.7419C21.5697 26.9277 21.8898 27.0162 22.2364 27.0162C22.8501 27.0162 23.2058 26.7288 23.2058 26.3264C23.2058 25.955 22.9259 25.7606 22.4633 25.6943L22.2455 25.6629C22.0456 25.6366 21.8853 25.5972 21.8853 25.4554C21.8853 25.3006 22.0364 25.208 22.2898 25.208C22.5611 25.208 22.8236 25.3097 22.9524 25.3891L23.1524 25.0177ZM28.5547 25.1062C28.6743 24.9205 28.8478 24.7965 29.1145 24.7965C29.2081 24.7965 29.3415 24.8142 29.4438 24.8542L29.3013 25.2874C29.2036 25.2474 29.1059 25.2343 29.0122 25.2343C28.7099 25.2343 28.5588 25.4286 28.5588 25.7783V26.9631H28.0967V24.8497H28.5547V25.1062ZM25.1711 24.8496H24.4154V24.2084H23.9482V24.8496H23.5172V25.2697H23.9482V26.2338C23.9482 26.7242 24.1396 27.0162 24.6861 27.0162C24.8866 27.0162 25.1176 26.9545 25.2642 26.8528L25.1309 26.459C24.993 26.5385 24.8418 26.5785 24.7217 26.5785C24.4907 26.5785 24.4154 26.4368 24.4154 26.2247V25.2697H25.1711V24.8496ZM18.262 25.6366V26.9631H17.7948V25.7869C17.7948 25.4286 17.6437 25.2297 17.3282 25.2297C17.0213 25.2297 16.8081 25.4246 16.8081 25.7915V26.9631H16.341V25.7869C16.341 25.4286 16.1858 25.2297 15.8789 25.2297C15.5629 25.2297 15.3583 25.4246 15.3583 25.7915V26.9631H14.8917V24.8497H15.3542V25.1103C15.5278 24.8628 15.7496 24.7965 15.9766 24.7965C16.3013 24.7965 16.5323 24.9382 16.6789 25.1725C16.8748 24.876 17.1547 24.792 17.4259 24.7965C17.9419 24.8011 18.262 25.1371 18.262 25.6366Z" fill="#231F20"/>
<path d="M30.0025 21.2585H22.9992V8.74182H30.0025V21.2585Z" fill="#FF5F00"/>
<path d="M23.4435 15.0004C23.4435 12.4613 24.6389 10.1996 26.5004 8.74203C25.1391 7.6762 23.4211 7.04005 21.554 7.04005C17.1338 7.04005 13.5508 10.6039 13.5508 15.0004C13.5508 19.3968 17.1338 22.9607 21.554 22.9607C23.4211 22.9607 25.1391 22.3245 26.5004 21.2587C24.6389 19.8012 23.4435 17.5394 23.4435 15.0004Z" fill="#EB001B"/>
<path d="M39.4505 15.0004C39.4505 19.3968 35.8674 22.9607 31.4472 22.9607C29.5801 22.9607 27.8621 22.3245 26.5004 21.2587C28.3624 19.8012 29.5577 17.5394 29.5577 15.0004C29.5577 12.4613 28.3624 10.1996 26.5004 8.74203C27.8621 7.6762 29.5801 7.04005 31.4472 7.04005C35.8674 7.04005 39.4505 10.6039 39.4505 15.0004Z" fill="#F79E1B"/>
</svg>
