<svg width="53" height="34" viewBox="0 0 53 34" fill="none" xmlns="http://www.w3.org/2000/svg">
<rect width="53" height="34" rx="5" fill="#EBECF5" fill-opacity="0.65"/>
<path d="M19.5877 9.61707H25.3154C26.115 9.61707 26.6122 10.2887 26.4257 11.1154L23.7591 22.9145C23.5709 23.7384 22.7704 24.4106 21.9703 24.4106H16.2432C15.4448 24.4106 14.9464 23.7384 15.1329 22.9145L17.8006 11.1154C17.9871 10.2887 18.7872 9.61707 19.5877 9.61707Z" fill="#E21836"/>
<path d="M24.8385 9.61621H31.4252C32.2246 9.61621 31.8641 10.2878 31.676 11.1146L29.0098 22.9137C28.8227 23.7375 28.8811 24.4097 28.08 24.4097H21.4934C20.6923 24.4097 20.1965 23.7375 20.3847 22.9137L23.0508 11.1146C23.2401 10.2878 24.0385 9.61621 24.8385 9.61621Z" fill="#00447C"/>
<path d="M31.164 9.61621H36.8917C37.6923 9.61621 38.1896 10.2878 38.0016 11.1146L35.3354 22.9137C35.1472 23.7375 34.3461 24.4097 33.5456 24.4097H27.8206C27.0195 24.4097 26.5226 23.7375 26.7103 22.9137L29.3769 11.1146C29.5634 10.2878 30.363 9.61621 31.164 9.61621Z" fill="#007B84"/>
<path d="M21.0833 13.3974C20.4943 13.4036 20.3203 13.3974 20.2648 13.3839C20.2434 13.4885 19.8459 15.378 19.8448 15.3796C19.7592 15.7619 19.697 16.0344 19.4855 16.2104C19.3654 16.3127 19.2252 16.362 19.0627 16.362C18.8015 16.362 18.6494 16.2284 18.6238 15.9748L18.6189 15.8878C18.6189 15.8878 18.6985 15.3757 18.6985 15.3729C18.6985 15.3729 19.1157 13.6509 19.1903 13.4233C19.1942 13.4104 19.1954 13.4036 19.1963 13.3974C18.3844 13.4048 18.2405 13.3974 18.2305 13.3839C18.2251 13.4025 18.205 13.5092 18.205 13.5092L17.779 15.45L17.7425 15.6146L17.6717 16.153C17.6717 16.3127 17.7021 16.443 17.7627 16.5532C17.9568 16.9027 18.5103 16.9551 18.8235 16.9551C19.2269 16.9551 19.6054 16.8667 19.8612 16.7055C20.3051 16.4351 20.4213 16.0125 20.5248 15.637L20.5729 15.4444C20.5729 15.4444 21.0026 13.656 21.0756 13.4233C21.0784 13.4104 21.0795 13.4036 21.0833 13.3974ZM22.5453 14.8401C22.4418 14.8401 22.2524 14.866 22.0824 14.9519C22.0207 14.9846 21.9623 15.0223 21.9008 15.0598L21.9563 14.8531L21.9259 14.8183C21.5653 14.8935 21.4846 14.9036 21.1515 14.9519L21.1236 14.9711C21.0849 15.3016 21.0506 15.55 20.9072 16.1996C20.8526 16.4391 20.7959 16.6808 20.7391 16.9196L20.7545 16.95C21.0958 16.9314 21.1994 16.9314 21.4961 16.9364L21.5201 16.9095C21.5578 16.7106 21.5626 16.6639 21.6461 16.2609C21.6854 16.0699 21.7672 15.65 21.8075 15.5005C21.8817 15.4651 21.9548 15.4303 22.0246 15.4303C22.1909 15.4303 22.1706 15.5798 22.1642 15.6394C22.1571 15.7394 22.0965 16.066 22.0344 16.3464L21.9929 16.5274C21.964 16.6611 21.9323 16.791 21.9034 16.9235L21.916 16.95C22.2524 16.9314 22.3551 16.9314 22.6424 16.9364L22.6762 16.9095C22.7281 16.5988 22.7433 16.5156 22.8354 16.0631L22.8818 15.8552C22.9718 15.4483 23.0171 15.242 22.9489 15.0739C22.8769 14.8856 22.7041 14.8401 22.5453 14.8401ZM24.1786 15.2661C23.9998 15.3015 23.8857 15.3251 23.7724 15.3404C23.66 15.3589 23.5504 15.3758 23.3776 15.4005L23.3639 15.4133L23.3513 15.4236C23.3333 15.5562 23.3208 15.6709 23.2969 15.8057C23.2766 15.9451 23.2455 16.1035 23.1948 16.3311C23.1556 16.5054 23.1354 16.5661 23.113 16.6274C23.0912 16.6887 23.0672 16.7482 23.0231 16.9196L23.0334 16.9354L23.0421 16.9499C23.2036 16.942 23.3093 16.9364 23.4179 16.9354C23.5264 16.9314 23.6388 16.9354 23.8127 16.9364L23.8279 16.9236L23.8443 16.9095C23.8694 16.755 23.8732 16.7134 23.8885 16.638C23.9038 16.5572 23.93 16.4452 23.9944 16.1462C24.0248 16.0058 24.0587 15.8658 24.0903 15.7225C24.1231 15.5798 24.1574 15.4392 24.1901 15.2988L24.1852 15.2818L24.1786 15.2661ZM24.1824 14.6918C24.0199 14.5929 23.7347 14.6243 23.5428 14.7608C23.3514 14.8946 23.3296 15.0845 23.4915 15.1847C23.6512 15.2808 23.9376 15.2522 24.1279 15.1145C24.3188 14.9778 24.3427 14.7896 24.1824 14.6918ZM25.1652 16.9809C25.494 16.9809 25.831 16.8876 26.0847 16.6104C26.2798 16.3857 26.3693 16.0513 26.4003 15.9136C26.5013 15.4573 26.4227 15.2442 26.324 15.1144C26.174 14.9166 25.909 14.8531 25.6342 14.8531C25.4689 14.8531 25.0752 14.87 24.7676 15.1622C24.5468 15.3729 24.4447 15.659 24.3831 15.9332C24.321 16.2126 24.2495 16.7156 24.6984 16.9028C24.8369 16.9641 25.0365 16.9809 25.1652 16.9809ZM25.1395 15.9541C25.2153 15.6085 25.3048 15.3184 25.5332 15.3184C25.7122 15.3184 25.7252 15.5342 25.6456 15.881C25.6314 15.958 25.566 16.2441 25.4777 16.366C25.416 16.4559 25.3429 16.5104 25.2622 16.5104C25.2382 16.5104 25.0954 16.5104 25.0932 16.2919C25.0921 16.184 25.1134 16.0738 25.1395 15.9541ZM27.2222 16.9365L27.2479 16.9096C27.2843 16.7106 27.2903 16.6638 27.371 16.261C27.4114 16.0699 27.4948 15.6501 27.5341 15.5006C27.6083 15.465 27.6802 15.4302 27.7523 15.4302C27.9174 15.4302 27.8973 15.5797 27.8908 15.6393C27.8848 15.7394 27.8242 16.0659 27.7609 16.3463L27.7217 16.5273C27.6917 16.6611 27.659 16.7909 27.6301 16.9235L27.6427 16.95C27.9803 16.9314 28.079 16.9314 28.3679 16.9365L28.4029 16.9096C28.4535 16.5987 28.4672 16.5155 28.5621 16.0631L28.6074 15.8551C28.6978 15.4482 28.7436 15.242 28.6766 15.074C28.6025 14.8856 28.4285 14.8402 28.272 14.8402C28.1683 14.8402 27.978 14.8659 27.809 14.952C27.7485 14.9846 27.6879 15.0222 27.6284 15.0599L27.6802 14.8531L27.6525 14.8182C27.292 14.8936 27.2096 14.9036 26.8769 14.952L26.8514 14.9711C26.811 15.3016 26.7782 15.5499 26.6349 16.1997C26.5803 16.4391 26.5236 16.6808 26.4669 16.9196L26.4821 16.95C26.824 16.9314 26.9261 16.9314 27.2222 16.9365ZM29.7024 16.9499C29.7236 16.8432 29.8497 16.2104 29.8508 16.2104C29.8508 16.2104 29.9581 15.7461 29.9647 15.7293C29.9647 15.7293 29.9985 15.6809 30.0323 15.6618H30.082C30.5509 15.6618 31.0805 15.6618 31.4955 15.3471C31.7779 15.1313 31.971 14.8126 32.0571 14.4253C32.0795 14.3304 32.096 14.2174 32.096 14.1045C32.096 13.9561 32.0671 13.8094 31.9836 13.6947C31.7719 13.3895 31.3505 13.3839 30.8639 13.3816C30.8624 13.3816 30.6241 13.3839 30.6241 13.3839C30.0013 13.3918 29.7515 13.3895 29.6489 13.3766C29.6403 13.4233 29.6239 13.5065 29.6239 13.5065C29.6239 13.5065 29.4008 14.5721 29.4008 14.5738C29.4008 14.5738 28.867 16.8393 28.8418 16.9461C29.3856 16.9393 29.6086 16.9393 29.7024 16.9499ZM30.1158 15.0571C30.1158 15.0571 30.353 13.9937 30.3518 13.9977L30.3595 13.9432L30.3629 13.9016L30.4577 13.9117C30.4577 13.9117 30.9468 13.955 30.9583 13.9561C31.1514 14.0331 31.2309 14.2315 31.1754 14.4905C31.1247 14.7272 30.9757 14.9262 30.7843 15.0223C30.6267 15.1037 30.4337 15.1105 30.2347 15.1105H30.106L30.1158 15.0571ZM31.5926 15.9738C31.5299 16.2492 31.4579 16.7521 31.9045 16.9314C32.0469 16.9939 32.1745 17.0124 32.3042 17.0057C32.4411 16.998 32.568 16.9272 32.6856 16.8254C32.675 16.8672 32.6644 16.9091 32.6537 16.9511L32.674 16.978C32.9952 16.9641 33.0949 16.9641 33.4429 16.9668L33.4745 16.9421C33.5253 16.6342 33.5732 16.3352 33.7053 15.7462C33.7696 15.464 33.8338 15.1846 33.8999 14.9036L33.8895 14.8727C33.5302 14.9413 33.4341 14.956 33.0885 15.0065L33.0622 15.0285C33.0587 15.0571 33.0551 15.0846 33.0518 15.1121C32.998 15.0226 32.9201 14.9462 32.7999 14.8986C32.6462 14.8363 32.2852 14.9166 31.9748 15.2078C31.7568 15.4157 31.6521 15.7005 31.5926 15.9738ZM32.3473 15.9906C32.4242 15.6512 32.5126 15.364 32.7416 15.364C32.8863 15.364 32.9626 15.5017 32.9471 15.7365C32.9348 15.7951 32.9215 15.8568 32.9057 15.9266C32.8828 16.0274 32.858 16.1274 32.8338 16.2276C32.8093 16.2961 32.7806 16.3607 32.7492 16.4037C32.6903 16.4897 32.5502 16.5431 32.4695 16.5431C32.4466 16.5431 32.3053 16.5431 32.3004 16.3284C32.2993 16.2215 32.3206 16.1115 32.3473 15.9906ZM36.2885 14.8699L36.2607 14.8373C35.9051 14.9115 35.8408 14.9233 35.5141 14.9688L35.4901 14.9935C35.489 14.9975 35.488 15.0037 35.4863 15.0093L35.4852 15.0037C35.242 15.582 35.2491 15.4572 35.0512 15.9125C35.05 15.8917 35.05 15.8788 35.0489 15.8568L34.9994 14.8699L34.9682 14.8373C34.5958 14.9115 34.587 14.9233 34.243 14.9688L34.2162 14.9935C34.2124 15.0053 34.2124 15.0183 34.2102 15.0324L34.2124 15.0374C34.2554 15.2639 34.2451 15.2134 34.2882 15.5708C34.3083 15.7461 34.3351 15.9225 34.3552 16.0958C34.3891 16.3857 34.4081 16.5284 34.4496 16.9708C34.2173 17.3659 34.1623 17.5154 33.9386 17.8621L33.9402 17.8656L33.7827 18.1223C33.7647 18.1493 33.7483 18.1679 33.7254 18.1758C33.7003 18.1886 33.6676 18.1909 33.6223 18.1909H33.535L33.4053 18.6355L33.8502 18.6434C34.1115 18.6423 34.2756 18.5164 34.364 18.3472L34.6438 17.8531H34.6393L34.6688 17.8183C34.857 17.4007 36.2885 14.8699 36.2885 14.8699ZM31.5926 20.7088H31.4038L32.1024 18.3275H32.3342L32.4077 18.0822L32.4149 18.355C32.4062 18.5236 32.5349 18.6731 32.8731 18.6484H33.2641L33.3987 18.1898H33.2515C33.1669 18.1898 33.1277 18.1678 33.1326 18.1206L33.1255 17.8431H32.4013V17.8445C32.1672 17.8496 31.468 17.8677 31.3265 17.9065C31.1552 17.952 30.9747 18.0858 30.9747 18.0858L31.0456 17.8402H30.3682L30.2271 18.3275L29.5191 20.7452H29.3818L29.247 21.2005H30.5962L30.551 21.3523H31.2158L31.2599 21.2005H31.4464L31.5926 20.7088ZM31.039 18.8114C30.9306 18.8423 30.7287 18.9361 30.7287 18.9361L30.9082 18.3275H31.4464L31.3166 18.771C31.3166 18.771 31.1503 18.781 31.039 18.8114ZM31.0494 19.6808C31.0494 19.6808 30.8803 19.7027 30.769 19.7286C30.6594 19.7628 30.4539 19.8708 30.4539 19.8708L30.6393 19.2374H31.1803L31.0494 19.6808ZM30.7478 20.7145H30.2079L30.3644 20.1799H30.9026L30.7478 20.7145ZM32.0479 19.2374H32.8261L32.7143 19.6106H31.9258L31.8074 20.0187H32.4973L31.9749 20.7768C31.9383 20.8324 31.9055 20.8521 31.8691 20.8678C31.8325 20.887 31.7845 20.9094 31.7289 20.9094H31.5375L31.406 21.3563H31.9066C32.1669 21.3563 32.3206 21.2343 32.4341 21.0741L32.7923 20.5689L32.8692 21.0819C32.8856 21.178 32.9526 21.2343 32.9979 21.2562C33.0481 21.2821 33.0999 21.3265 33.173 21.3331C33.2515 21.3366 33.3082 21.3393 33.3458 21.3393H33.5918L33.7395 20.8392H33.6425C33.5868 20.8392 33.4909 20.8296 33.4746 20.8116C33.4582 20.7897 33.4582 20.756 33.4494 20.7048L33.3714 20.1906H33.0518L33.192 20.0187H33.979L34.1 19.6106H33.3714L33.4849 19.2374H34.2113L34.346 18.7771H32.1804L32.0479 19.2374ZM25.4755 20.8184L25.6571 20.1957H26.4036L26.54 19.7325H25.7928L25.9068 19.3492H26.637L26.7723 18.9008H24.9454L24.8129 19.3492H25.2279L25.1172 19.7325H24.701L24.5631 20.2036H24.978L24.736 21.0274C24.7033 21.1365 24.7513 21.1781 24.7817 21.2287C24.8129 21.2781 24.8444 21.3107 24.9153 21.3293C24.9885 21.3461 25.0386 21.3562 25.1067 21.3562H25.9483L26.0982 20.8431L25.7252 20.8959C25.6532 20.8959 25.4537 20.887 25.4755 20.8184ZM25.5611 17.8374L25.3719 18.1898C25.3314 18.2667 25.295 18.3145 25.2622 18.3365C25.2333 18.3551 25.176 18.3628 25.0931 18.3628H24.9944L24.8625 18.8136H25.1903C25.3479 18.8136 25.4689 18.754 25.5267 18.7243C25.5889 18.69 25.6052 18.7096 25.6532 18.6618L25.7639 18.563H26.7875L26.9234 18.0936H26.1741L26.3049 17.8374H25.5611ZM27.0722 20.8274C27.0548 20.8015 27.0674 20.7559 27.094 20.661L27.3738 19.7066H28.3691C28.5141 19.7045 28.6188 19.7027 28.6869 19.6977C28.7601 19.6898 28.8397 19.6629 28.9264 19.6145C29.0159 19.5639 29.0616 19.5105 29.1003 19.4492C29.1435 19.3881 29.2127 19.2543 29.2722 19.0479L29.6238 17.8402L28.591 17.8464C28.591 17.8464 28.273 17.8948 28.133 17.9481C27.9917 18.0077 27.7898 18.174 27.7898 18.174L27.8831 17.843H27.2451L26.3519 20.8959C26.3202 21.0145 26.299 21.1005 26.2941 21.1522C26.2924 21.2078 26.3622 21.2629 26.4074 21.3045C26.4609 21.3461 26.5399 21.3393 26.6157 21.3461C26.6954 21.3523 26.8088 21.3562 26.9653 21.3562H27.4556L27.6061 20.8325L27.1672 20.8752C27.1203 20.8752 27.0863 20.8493 27.0722 20.8274ZM27.5543 19.062H28.5997L28.5332 19.2767C28.5239 19.2817 28.5015 19.2661 28.3952 19.279H27.4899L27.5543 19.062ZM27.7637 18.3421H28.8179L28.7421 18.6006C28.7421 18.6006 28.2452 18.5956 28.1656 18.6107C27.8155 18.6731 27.611 18.8659 27.611 18.8659L27.7637 18.3421ZM28.5566 19.9956C28.548 20.0277 28.5343 20.0472 28.5152 20.0619C28.4939 20.076 28.4596 20.081 28.4084 20.081H28.2594L28.2682 19.8196H27.6486L27.6235 21.0977C27.6225 21.1899 27.6312 21.2433 27.6966 21.286C27.7621 21.3394 27.9639 21.3462 28.2354 21.3462H28.6236L28.7638 20.8678L28.4258 20.8869L28.3134 20.8937C28.2981 20.8869 28.2834 20.8807 28.2671 20.8639C28.2528 20.8493 28.2288 20.8583 28.2327 20.766L28.2354 20.4384L28.5899 20.4233C28.7813 20.4233 28.8631 20.3591 28.9329 20.298C28.9995 20.2394 29.0212 20.1721 29.0464 20.081L29.1058 19.791H28.6188L28.5566 19.9956Z" fill="#FEFEFE"/>
</svg>
