<svg width="18" height="16" viewBox="0 0 18 16" fill="none" xmlns="http://www.w3.org/2000/svg">
<path d="M17.3333 6.41666C17.4166 5.99999 17.0833 5.49999 16.6666 5.49999L11.9166 4.83332L9.74996 0.499989C9.66663 0.333323 9.58329 0.249989 9.41663 0.166656C8.99996 -0.083344 8.49996 0.0833227 8.24996 0.499989L6.16663 4.83332L1.41663 5.49999C1.16663 5.49999 0.999959 5.58332 0.916626 5.74999C0.583293 6.08332 0.583293 6.58332 0.916626 6.91666L4.33329 10.25L3.49996 15C3.49996 15.1667 3.49996 15.3333 3.58329 15.5C3.83329 15.9167 4.33329 16.0833 4.74996 15.8333L8.99996 13.5833L13.25 15.8333C13.3333 15.9167 13.5 15.9167 13.6666 15.9167C13.75 15.9167 13.75 15.9167 13.8333 15.9167C14.25 15.8333 14.5833 15.4167 14.5 14.9167L13.6666 10.1667L17.0833 6.83332C17.25 6.74999 17.3333 6.58332 17.3333 6.41666Z" fill="#FF922E"/>
</svg>
