<svg width="53" height="34" viewBox="0 0 53 34" fill="none" xmlns="http://www.w3.org/2000/svg">
<rect width="53" height="34" rx="5" fill="#EBECF5" fill-opacity="0.65"/>
<path d="M31.3658 17.2864C31.8834 17.298 32.4038 17.2629 32.9193 17.3047C33.4413 17.405 33.5671 18.2195 33.1033 18.4862C32.7869 18.6619 32.411 18.5516 32.0679 18.5826H31.3658V17.2864ZM33.2185 15.8193C33.3335 16.2375 32.9422 16.6131 32.5514 16.5555H31.3658C31.3742 16.161 31.3496 15.7329 31.3779 15.3592C31.8528 15.373 32.3321 15.3311 32.8043 15.3812C33.0072 15.4337 33.177 15.6056 33.2185 15.8193ZM36.0717 9.61661C36.0937 10.4154 36.0749 11.2564 36.0812 12.0713C36.0797 15.3847 36.0843 18.698 36.0787 22.0116C36.0578 23.2533 34.99 24.3323 33.7934 24.3571C32.5957 24.3621 31.3978 24.3579 30.1999 24.3593V19.3501C31.5051 19.3432 32.8109 19.3642 34.1155 19.3396C34.7207 19.3005 35.3837 18.8889 35.4118 18.2025C35.4831 17.5132 34.8525 17.0363 34.2537 16.961C34.0235 16.9549 34.0303 16.8919 34.2537 16.8644C34.8248 16.7372 35.2732 16.1281 35.1052 15.518C34.962 14.8764 34.2739 14.6281 33.7015 14.6293C32.5345 14.6211 31.3672 14.6282 30.2002 14.6258C30.2077 13.6906 30.1844 12.7545 30.2127 11.82C30.3052 10.6007 31.3999 9.59511 32.5796 9.61693C33.7438 9.61674 34.9078 9.61674 36.0717 9.6167V9.61661Z" fill="url(#paint0_linear_1_9675)"/>
<path d="M17.0115 11.9464C17.0413 10.7066 18.1137 9.63647 19.3088 9.61835C20.5021 9.61457 21.6955 9.61781 22.8888 9.61671C22.8856 13.7648 22.8953 17.9134 22.8839 22.0613C22.838 23.286 21.7772 24.3358 20.5952 24.3575C19.3997 24.3619 18.204 24.3581 17.0084 24.3593V19.1813C18.1697 19.4641 19.3875 19.5844 20.5723 19.3969C21.2805 19.2794 22.0553 18.921 22.2951 18.1638C22.4715 17.5161 22.3722 16.8345 22.3985 16.1697V14.6259H20.3481C20.3389 15.6469 20.367 16.6698 20.3333 17.6896C20.278 18.3164 19.6757 18.7147 19.102 18.6934C18.3906 18.7012 16.9808 18.1621 16.9808 18.1621C16.9773 16.249 17.0015 13.8533 17.0115 11.9466V11.9464Z" fill="url(#paint1_linear_1_9675)"/>
<path d="M23.6535 15.2486C23.5456 15.2722 23.6318 14.8697 23.6042 14.717C23.6115 13.7517 23.5888 12.7854 23.6167 11.8207C23.7089 10.5962 24.8121 9.58814 25.9966 9.61681H29.4849C29.4817 13.7649 29.4914 17.9135 29.48 22.0614C29.434 23.2861 28.3732 24.3358 27.1912 24.3576C25.9956 24.3622 24.7998 24.3583 23.6041 24.3595V18.6863C24.4207 19.3768 25.5306 19.4842 26.5479 19.4861C27.3149 19.4858 28.0774 19.364 28.8222 19.1817V18.1423C27.9828 18.5735 26.9961 18.8473 26.0657 18.5996C25.4166 18.4331 24.9454 17.7867 24.9559 17.0963C24.8807 16.3784 25.2891 15.6205 25.9736 15.4071C26.8235 15.1329 27.7498 15.3426 28.5465 15.6991C28.7171 15.7912 28.8904 15.9055 28.8221 15.6114V14.7945C27.4897 14.4678 26.0718 14.3476 24.7332 14.703C24.3457 14.8156 23.9682 14.9865 23.6535 15.2487V15.2486Z" fill="url(#paint2_linear_1_9675)"/>
<defs>
<linearGradient id="paint0_linear_1_9675" x1="30.1597" y1="16.6727" x2="36.0441" y2="16.6727" gradientUnits="userSpaceOnUse">
<stop stop-color="#007B40"/>
<stop offset="1" stop-color="#55B330"/>
</linearGradient>
<linearGradient id="paint1_linear_1_9675" x1="16.8833" y1="17.1292" x2="22.7924" y2="17.1292" gradientUnits="userSpaceOnUse">
<stop stop-color="#1D2970"/>
<stop offset="1" stop-color="#006DBA"/>
</linearGradient>
<linearGradient id="paint2_linear_1_9675" x1="23.5955" y1="16.8157" x2="29.4838" y2="16.8157" gradientUnits="userSpaceOnUse">
<stop stop-color="#6E2B2F"/>
<stop offset="1" stop-color="#E30138"/>
</linearGradient>
</defs>
</svg>
