<svg width="53" height="34" viewBox="0 0 53 34" fill="none" xmlns="http://www.w3.org/2000/svg">
<rect width="53" height="34" rx="5" fill="#EBECF5" fill-opacity="0.65"/>
<path d="M29.972 21.2324H22.9816V8.73865H29.972V21.2324Z" fill="#6C6BBD"/>
<path d="M23.4254 14.9859C23.4254 12.4514 24.6186 10.1938 26.4767 8.73896C25.1179 7.67508 23.4031 7.04008 21.5394 7.04008C17.1273 7.04008 13.5508 10.5975 13.5508 14.9859C13.5508 19.3743 17.1273 22.9316 21.5394 22.9316C23.4031 22.9316 25.1179 22.2966 26.4767 21.2328C24.6186 19.7779 23.4254 17.5203 23.4254 14.9859Z" fill="#EB001B"/>
<path d="M39.403 14.9859C39.403 19.3743 35.8265 22.9316 31.4144 22.9316C29.5507 22.9316 27.8358 22.2966 26.4766 21.2328C28.3352 19.7779 29.5284 17.5203 29.5284 14.9859C29.5284 12.4514 28.3352 10.1938 26.4766 8.73896C27.8358 7.67508 29.5507 7.04008 31.4144 7.04008C35.8265 7.04008 39.403 10.5975 39.403 14.9859Z" fill="#0099DF"/>
<path d="M32.3372 24.7628C32.4302 24.7628 32.5638 24.7805 32.6659 24.8204L32.5236 25.2528C32.4261 25.2129 32.3286 25.1998 32.2351 25.1998C31.9334 25.1998 31.7825 25.3937 31.7825 25.7423V26.9254H31.3208V24.8158H31.778V25.072C31.8978 24.8866 32.071 24.7628 32.3372 24.7628Z" fill="#231F20"/>
<path d="M30.6316 25.2352H29.8773V26.1884C29.8773 26.4001 29.9524 26.5415 30.1835 26.5415C30.3034 26.5415 30.4543 26.5016 30.5914 26.4223L30.7245 26.8148C30.5782 26.9164 30.3476 26.9785 30.148 26.9785C29.6019 26.9785 29.4115 26.687 29.4115 26.197V25.2352H28.9807V24.8159H29.4115V24.1758H29.8773V24.8159H30.6316V25.2352Z" fill="#231F20"/>
<path fill-rule="evenodd" clip-rule="evenodd" d="M25.2971 24.7628C25.8919 24.7628 26.3003 25.2129 26.3049 25.8706C26.3049 25.9318 26.3004 25.9884 26.2959 26.0456L26.2958 26.047H24.7206C24.7871 26.4263 25.0579 26.5632 25.355 26.5632C25.5679 26.5632 25.7944 26.4839 25.9717 26.3425L26.1982 26.6825C25.9407 26.8987 25.6481 26.978 25.3286 26.978C24.6937 26.978 24.2411 26.541 24.2411 25.8706C24.2411 25.2129 24.6759 24.7628 25.2971 24.7628ZM25.2885 25.173C24.9598 25.173 24.7739 25.3806 24.7246 25.6852H25.8254C25.7766 25.3584 25.5856 25.173 25.2885 25.173Z" fill="#231F20"/>
<path d="M28.3325 25.3544C28.204 25.2746 27.9424 25.173 27.6717 25.173C27.4187 25.173 27.2679 25.266 27.2679 25.4206C27.2679 25.5615 27.4274 25.6014 27.627 25.6277L27.8444 25.6585C28.3061 25.7252 28.5855 25.9192 28.5855 26.29C28.5855 26.6916 28.2304 26.9785 27.6184 26.9785C27.2719 26.9785 26.9524 26.8901 26.6995 26.7047L26.9169 26.3471C27.0723 26.4663 27.3034 26.5678 27.6229 26.5678C27.9379 26.5678 28.1065 26.4754 28.1065 26.3117C28.1065 26.193 27.9866 26.1263 27.7337 26.0914L27.5163 26.0606C27.0413 25.9939 26.7838 25.7823 26.7838 25.4383C26.7838 25.019 27.1302 24.7628 27.6671 24.7628C28.0044 24.7628 28.3107 24.8381 28.5322 24.9836L28.3325 25.3544Z" fill="#231F20"/>
<path fill-rule="evenodd" clip-rule="evenodd" d="M34.4813 24.8482C34.3411 24.7911 34.1887 24.7628 34.0241 24.7628C33.8595 24.7628 33.7071 24.7911 33.5669 24.8482C33.4267 24.9048 33.3064 24.9831 33.2048 25.0826C33.1032 25.1821 33.0234 25.2998 32.9655 25.4352C32.9076 25.5711 32.8787 25.7186 32.8787 25.8777C32.8787 26.0368 32.9076 26.1844 32.9655 26.3202C33.0234 26.4556 33.1032 26.5738 33.2048 26.6734C33.3064 26.7729 33.4267 26.8507 33.5669 26.9078C33.7071 26.9643 33.8595 26.9926 34.0241 26.9926C34.1887 26.9926 34.3411 26.9643 34.4813 26.9078C34.6215 26.8507 34.7429 26.7729 34.845 26.6734C34.9476 26.5738 35.0273 26.4556 35.0852 26.3202C35.1431 26.1844 35.1721 26.0368 35.1721 25.8777C35.1721 25.7186 35.1431 25.5711 35.0852 25.4352C35.0273 25.2998 34.9476 25.1821 34.845 25.0826C34.7429 24.9831 34.6215 24.9048 34.4813 24.8482ZM33.7594 25.2483C33.8412 25.2154 33.9291 25.1988 34.0241 25.1988C34.119 25.1988 34.2074 25.2154 34.2887 25.2483C34.3705 25.2816 34.4416 25.3281 34.501 25.3877C34.5615 25.4473 34.6082 25.519 34.6427 25.6024C34.6768 25.6857 34.6935 25.7777 34.6935 25.8777C34.6935 25.9782 34.6768 26.0697 34.6427 26.153C34.6082 26.2364 34.5615 26.3081 34.501 26.3677C34.4416 26.4273 34.3705 26.4738 34.2887 26.5071C34.2074 26.5405 34.119 26.5567 34.0241 26.5567C33.9291 26.5567 33.8412 26.5405 33.7594 26.5071C33.6781 26.4738 33.6075 26.4273 33.5481 26.3677C33.4887 26.3081 33.4419 26.2364 33.4079 26.153C33.3739 26.0697 33.3571 25.9782 33.3571 25.8777C33.3571 25.7777 33.3739 25.6857 33.4079 25.6024C33.4419 25.519 33.4887 25.4473 33.5481 25.3877C33.6075 25.3281 33.6781 25.2816 33.7594 25.2483Z" fill="#231F20"/>
<path fill-rule="evenodd" clip-rule="evenodd" d="M23.7458 24.8159V25.8706V26.9254H23.2846V26.6693C23.1378 26.8593 22.9163 26.9785 22.6146 26.9785C22.0197 26.9785 21.554 26.5147 21.554 25.8706C21.554 25.2261 22.0197 24.7628 22.6146 24.7628C22.9163 24.7628 23.1378 24.882 23.2846 25.072V24.8159H23.7458ZM22.6719 25.1952C22.2727 25.1952 22.0284 25.4998 22.0284 25.8706C22.0284 26.2414 22.2727 26.5455 22.6719 26.5455C23.0534 26.5455 23.3109 26.2546 23.3109 25.8706C23.3109 25.4867 23.0534 25.1952 22.6719 25.1952Z" fill="#231F20"/>
<path d="M21.1457 26.9254V25.6014C21.1457 25.1028 20.8261 24.7673 20.3116 24.7628C20.0409 24.7582 19.761 24.8421 19.5659 25.1381C19.4196 24.9042 19.1885 24.7628 18.8644 24.7628C18.6384 24.7628 18.4164 24.829 18.2432 25.076V24.8158H17.782V26.9254H18.2478V25.756C18.2478 25.3897 18.452 25.1952 18.7669 25.1952C19.0732 25.1952 19.2286 25.3937 19.2286 25.7514V26.9254H19.6944V25.756C19.6944 25.3897 19.9078 25.1952 20.2136 25.1952C20.529 25.1952 20.6799 25.3937 20.6799 25.7514V26.9254H21.1457V26.9254Z" fill="#231F20"/>
</svg>
