<svg width="72" height="84" viewBox="0 0 72 84" fill="none" xmlns="http://www.w3.org/2000/svg">
<rect width="72" height="84" rx="10" fill="url(#paint0_linear_1_10460)"/>
<g clip-path="url(#clip0_1_10460)">
<path d="M44.0806 39.1207L41.2852 50.6985H45.8206L48.728 38.6357L44.0806 39.1207Z" fill="white"/>
<path d="M59.0316 38.613C57.6798 38.4779 55.5706 38.9023 54.5284 39.7119C54.5044 39.2689 54.4247 38.9208 54.3318 38.5645L50.3175 39.0655C50.4771 40.2077 50.3198 41.4751 49.9256 43.1806L48.127 50.6994H52.6623L54.5187 43.0281C54.9733 42.3626 55.6957 41.9177 56.3064 41.9177C57.0619 41.9177 57.2464 42.4817 57.012 43.407L55.2692 50.6994H59.8047L61.751 42.7793C62.2149 40.6325 61.5311 38.863 59.0316 38.613Z" fill="white"/>
<path d="M49.4723 35.3679C49.4723 34.126 48.4079 33.1143 47.0466 33.1143C45.6603 33.1143 44.5215 34.1259 44.5215 35.3679C44.5215 36.6096 45.6356 37.6221 46.9722 37.6221C48.3581 37.6222 49.4723 36.6097 49.4723 35.3679Z" fill="#FFD300"/>
<path fill-rule="evenodd" clip-rule="evenodd" d="M38.5953 38.7613L37.1615 42.1395C36.631 43.4086 36.1658 44.6036 35.7575 45.7759L35.7017 38.7613H31.6089L28.2184 45.8348L28.5852 38.5996L24.0762 39.1725L24.9883 50.6994H28.9766C28.9766 50.6994 32.0018 44.48 32.2727 43.76L32.3131 50.6994H36.4051L43.1571 38.7613H38.5953Z" fill="white"/>
<path fill-rule="evenodd" clip-rule="evenodd" d="M19.1929 38.46C18.0153 38.46 17.1336 38.7745 16.6144 39.0694C17.3561 36.7262 17.5215 34.5634 17.5215 34.5634L17.5212 34.5637C17.553 34.2126 17.5604 33.795 17.5511 33.5195L12.7982 34.1084C12.8517 34.8854 12.7398 36.1136 12.1288 38.7378L9.835 48.4087C9.73086 48.8715 9.47027 49.7507 9.26172 50.0743C10.6954 50.5603 12.3376 50.9999 15.0482 50.9999C16.5342 50.9999 17.7071 50.722 18.9062 50.0047C20.9654 48.7788 22.2367 46.5712 22.7628 44.4292C23.7465 40.4251 22.1382 38.46 19.1929 38.46ZM17.9939 44.6377C17.4725 46.8585 16.7946 47.8533 15.6479 47.8533C15.1787 47.8533 14.7877 47.7374 14.5794 47.5756L15.8303 42.2776C16.065 42.0694 16.4821 41.6992 17.16 41.6992C18.1764 41.6991 18.5411 42.2775 17.9939 44.6377Z" fill="white"/>
</g>
<defs>
<linearGradient id="paint0_linear_1_10460" x1="36" y1="0" x2="86.7441" y2="70.583" gradientUnits="userSpaceOnUse">
<stop stop-color="#313446"/>
<stop offset="1" stop-color="#070B1F"/>
</linearGradient>
<clipPath id="clip0_1_10460">
<rect width="53" height="18" fill="white" transform="translate(9 33)"/>
</clipPath>
</defs>
</svg>
